<svg width="308" height="48" viewBox="0 0 308 48" xmlns="http://www.w3.org/2000/svg"><path d="M87 35.6969461h3.5176594l1.716746-4.2721255h9.9638068l1.7327779 4.2721255h3.7875291L97.4514429 12.033376h-.4208366L87 35.696946zm6.4795472-7.2986594l2.5584192-6.3748123c.2244461-.548701.4769481-1.2829726.7575058-2.2028147l.370069-1.2442565c.0227118.1335039.1629907.5713968.4208366 1.3110085.2685338.8744507.5210357 1.5873616.7575058 2.1360627l2.5410513 6.3748123h-7.4053877zM121.2013214 36c2.0079917 0 3.8823844-.3310897 5.6218422-.9932692 1.4241644-.5260054 2.586475-1.193525 3.4842596-2.0012238v-9.3332591h-9.6445054v3.1787283h6.2951807v4.3722535c-1.470924 1.0092896-3.3894044 1.5139345-5.7567771 1.5139345-2.6359065 0-4.7734891-.8410748-6.4114118-2.5232242-1.5831471-1.6247427-2.3740526-3.6993936-2.3740526-6.2226178 0-2.5112087.7681937-4.5911998 2.3059172-6.2399732 1.5711232-1.6474384 3.5737709-2.4724927 6.0079431-2.4724927 1.3359891 0 2.4969636.202926 3.4842596.6061078.8643849.3698059 1.6552905.9358625 2.3727166 1.6981699l2.4408522-2.4551371C127.1651768 13.0426656 124.3996794 12 120.7297173 12c-3.5002915 0-6.3726681 1.1267731-8.6157939 3.3803193-2.2791974 2.2428659-3.4174601 5.1132002-3.4174601 8.6110029 0 3.5098181 1.1729984 6.3908328 3.5176593 8.644379C114.5587835 34.8785671 117.5554071 36 121.2013214 36zm14.0292217-.3030539h3.6512583v-8.6777549h4.2417654l5.0660708 8.6777549h4.17363l-5.520307-9.2665072c3.1756461-1.0987373 4.7628012-3.336263 4.7628012-6.7112421 0-2.4778328-.8189614-4.3615732-2.456884-5.651221-1.4922999-1.1988653-3.5123154-1.799633-6.0587107-1.799633h-7.859624v23.4286033zm3.6512583-11.7389998v-8.476164h4.0734308c3.2651574 0 4.8977361 1.4124715 4.8977361 4.2374145 0 2.826278-1.6325787 4.2387495-4.8977361 4.2387495h-4.0734308zm17.4466819 11.7389998h3.6178585V12.2683429h-3.6178585V35.696946zM176.4498154 36c4.296541 0 7.5336426-1.6647939 9.7113049-4.9957167l-2.7948892-1.9504923c-.7962496 1.1654892-1.7381219 2.0572954-2.826953 2.6740835-1.1676545.6728598-2.5303634 1.0092897-4.0894627 1.0092897-2.4127964 0-4.4047561-.8410748-5.9745433-2.5232242-1.5604353-1.6474384-2.339317-3.7220893-2.339317-6.2226178 0-2.5112087.7788817-4.5911998 2.339317-6.2399733 1.5697872-1.6474384 3.5617469-2.4724926 5.9745433-2.4724926 2.939176 0 5.1328702 1.121433 6.5810824 3.3642988l2.7935532-2.0012237C183.7483239 13.5473104 180.6234454 12 176.4498154 12c-3.3773805 0-6.2163574 1.1267731-8.5169306 3.3803193-2.3446609 2.2869222-3.5176594 5.1572565-3.5176594 8.6110029 0 3.4644268 1.1729985 6.3467765 3.5176594 8.644379C170.233458 34.8785671 173.0724349 36 176.4498154 36zm21.9302616 0c2.64793 0 4.773489-.7115759 6.379348-2.1360627 1.704722-1.5139345 2.557083-3.6446571 2.557083-6.3908328V12.2683429h-3.617859V27.254158c0 3.6553374-1.772857 5.4830061-5.318572 5.4830061-3.512316 0-5.267805-1.8276687-5.267805-5.4830061V12.2683429h-3.652595v15.2047616c0 2.7461757.852361 4.8768983 2.55842 6.3908328C193.599908 35.2884241 195.721458 36 198.380077 36zm14.416658-.3030539h14.474106v-3.1960839h-10.822847V12.2683429h-3.651259V35.696946zm20.590265 0h3.619194V15.4817823h6.951152v-3.2134394h-17.53753v3.2134394H233.387V35.696946zM256.184318 36c2.64793 0 4.774825-.7115759 6.379348-2.1360627 1.704722-1.5139345 2.558419-3.6446571 2.558419-6.3908328V12.2683429h-3.619194V27.254158c0 3.6553374-1.772858 5.4830061-5.318573 5.4830061-3.510979 0-5.267805-1.8276687-5.267805-5.4830061V12.2683429h-3.651258v15.2047616c0 2.7461757.852361 4.8768983 2.557083 6.3908328C251.405485 35.2884241 253.5257 36 256.184318 36zm14.416658-.3030539h3.652595v-8.6777549H278.494l5.066071 8.6777549h4.17363l-5.520307-9.2665072c3.175646-1.0987373 4.764137-3.336263 4.764137-6.7112421 0-2.4778328-.820297-4.3615732-2.45822-5.651221-1.4923-1.1988653-3.510979-1.799633-6.058711-1.799633h-7.859624v23.4286033zm3.652595-11.7389998v-8.476164h4.072095c3.265157 0 4.897736 1.4124715 4.897736 4.2374145 0 2.826278-1.632579 4.2387495-4.897736 4.2387495h-4.072095zm17.381218 11.7389998H307v-3.1960839h-11.713953v-6.9956055h9.963807v-3.1453524h-9.963807v-6.878122h11.243685v-3.2134394h-14.894943V35.696946zM60.0023033 11.9986729c-1.2967435 4.8184834-2.5876596 9.6383379-3.8521816 14.4653909-.6324324 2.4131837-1.2532102 4.8280813-1.9812786 7.2158991-.7071588 2.319947-1.5757679 4.7962026-2.841661 6.9032822-1.3203954 2.198945-3.0301908 3.9159389-5.3964134 5.0152401-.9460777.4391035-1.9154646.7404086-2.9324981.9560184-1.4431113.3057613-2.8927354.4315622-4.3591558.5145154-3.2423484.1827149-9.7310675.1779711-13.6683347.1748571l-1.2971748-.0007239 2.225682-8.2487007c1.6847724 0 3.3692021.0058273 5.0536317-.040791 1.6254712-.0452472 3.4141065-.1323138 5.0148974-.5107448 1.752986-.414766 3.0757808-1.126381 4.2343832-2.5526959 1.0554251-1.2991429 1.7649834-2.920158 2.3463413-4.4489647 1.0619379-2.7919575 2.1492417-6.7894786 2.9157018-9.6643893.8668951-3.2543702 1.7001976-6.5169671 2.5400129-9.7781929zM75 11.9986043l-6.4744622 23.9964381H56.5278329l6.4741194-23.9964381H75zM47.4318786 3c-1.2569808 4.684113-2.5122476 9.3685687-3.7836252 14.048911-.8860909 3.2605403-1.7660117 6.5224516-2.7278574 9.7620822-.4195649 1.4122609-.8384442 2.8204084-1.3882662 4.1915355-.4418457 1.1013579-.9357942 2.081371-1.8489649 2.90439-.6821357.6146077-1.4259721.9968094-2.2921817 1.2693209-1.1143835.3506658-2.2407644.4792089-3.3921684.5734739-1.6559788.1357416-3.3123003.1703626-4.9710213.1970995-3.8148184.061358-10.7424381.0527884-14.5572564.0363349-1.3707843-.0061701-2.7415687-.0143968-4.112353-.0394199-.9937243-.0178246-1.9864204-.0425049-2.9787736-.1045484-.6625972-.0418194-1.3200526-.0973501-1.9747658-.2180092-.4442452-.0815821-.8720368-.1912723-1.2888595-.3732894-1.372841-.5998681-2.0724586-1.7989187-2.1132496-3.2591691-.023652-.835702.1216875-1.6316412.288965-2.4399207.2375478-1.1448911.5333685-2.2740143.8264469-3.4045086.5594198-2.1598679 1.583309-6.1450488 2.381305-8.2428733.625234-1.6439814 1.4509952-3.2800788 3.0199074-4.3207643.8771786-.5817006 1.7989188-.8908898 2.8152667-1.0955305.7534344-.1515096 1.5106393-.2317205 2.2746999-.2886223 1.2796043-.0949505 2.560237-.1247725 3.8422409-.1473961 1.8218851-.0318787 3.6437702-.0387344 5.4656554-.0442189 3.0298481-.0082267 6.0596962-.0061701 9.0892015-.0061701-.5395385 1.9994461-1.079077 3.999235-1.6186155 5.9990239-2.7011204 0-5.4015552-.0075412-8.1026756.0082267-.7883981.004799-1.5757678-.0010283-2.3634803.050389-.27971.0181674-.5529071.0363348-.8233619.1309426-.3558075.1234014-.5316545.3468952-.687963.6677389-.2286354.469611-.3606064.9649307-.5062887 1.4605931-.2224653.7568622-.4284772 1.5181805-.6348318 2.2798416-.3177587 1.173342-.6355174 2.3466841-.9371654 3.5244822-.1114041.4360185-.2207515.8720369-.3146737 1.3121687-.0661568.3085036-.1258009.6159788-.1552801.9306525-.0322215.3441529-.0421622.7575477.1662492 1.0770203.2118391.3242716.570046.3996836.9042583.4480158.3777455.0551879.7561766.0671852 1.1359788.078497.6218061.018853 1.2436123.0215953 1.8654184.0246803 1.7012259.0082268 3.4024519.0085696 5.1036778-.0020567.783942-.0047989 1.5671983-.0102834 2.3504547-.0418194.5395385-.0215952 1.0722214-.0401054 1.6035331-.1686486.4037969-.0976928.719499-.251259.992696-.5813579.1847594-.2234937.3054186-.4713249.4157943-.7345813.2742254-.6526565.4658405-1.3282794.6656822-2.0035595.7668029-2.5904019 1.4575081-5.2006851 2.1632958-7.8078833C32.6405023 13.4366767 34.0366524 8.2185097 35.4338309 3z" fill="#141414" fill-rule="evenodd"/></svg>